PathFileType	4	(x/y/z)	S02_SL_Cal_T01
DataRate	CameraRate	NumFrames	NumMarkers	Units	OrigDataRate	OrigDataStartFrame	OrigNumFrames
240	240	9	51	mm	240	301	2400
Frame#	Time	Sternum			R.Acromium			L.Acromium			Top.Head			R.ASIS			L.ASIS			R.PSIS			L.PSIS			R.Great.Tro			L.Great.Tro			R.Iliac.Crest			L.Iliac.Crest			V.Sacral			R.Thigh.Upper.Post			R.Thigh.Lower.Ant			R.Thigh.Lower.Post			R.Thigh.Upper.Ant			R.Knee.Lat			R.Knee.Med			R.Shank.Upper.Post			R.Shank.Lower.Ant			R.Shank.Lower.Post			R.Shank.Upper.Ant			R.Ankle.Lat			R.Ankle.Med			R.Heel.Upper			R.Heel.Med			R.Heel.Lat			R.Toe.Lat			R.Toe.Med			R.Toe.Tip			L.Thigh.Upper.Post			L.Thigh.Lower.Ant			L.Thigh.Lower.Post			L.Thigh.Upper.Ant			L.Knee.Lat			L.Knee.Med			L.Shank.Upper.Post			L.Shank.Lower.Ant			L.Shank.Lower.Post			L.Shank.Upper.Ant			L.Ankle.Lat			L.Ankle.Med			L.Heel.Upper			L.Heel.Med			L.Heel.Lat			L.Toe.Lat			L.Toe.Med			L.Toe.Tip			Cervical.Spine			Back			
		X1	Y1	Z1	X2	Y2	Z2	X3	Y3	Z3	X4	Y4	Z4	X5	Y5	Z5	X6	Y6	Z6	X7	Y7	Z7	X8	Y8	Z8	X9	Y9	Z9	X10	Y10	Z10	X11	Y11	Z11	X12	Y12	Z12	X13	Y13	Z13	X14	Y14	Z14	X15	Y15	Z15	X16	Y16	Z16	X17	Y17	Z17	X18	Y18	Z18	X19	Y19	Z19	X20	Y20	Z20	X21	Y21	Z21	X22	Y22	Z22	X23	Y23	Z23	X24	Y24	Z24	X25	Y25	Z25	X26	Y26	Z26	X27	Y27	Z27	X28	Y28	Z28	X29	Y29	Z29	X30	Y30	Z30	X31	Y31	Z31	X32	Y32	Z32	X33	Y33	Z33	X34	Y34	Z34	X35	Y35	Z35	X36	Y36	Z36	X37	Y37	Z37	X38	Y38	Z38	X39	Y39	Z39	X40	Y40	Z40	X41	Y41	Z41	X42	Y42	Z42	X43	Y43	Z43	X44	Y44	Z44	X45	Y45	Z45	X46	Y46	Z46	X47	Y47	Z47	X48	Y48	Z48	X49	Y49	Z49	X50	Y50	Z50	X51	Y51	Z51	

301	1.25	646.96	1122.2	307.92	520.11	1353.4	444.34	522.85	1347.9	147.85	563.33	1642.4	295.06	613.26	937.86	416.12	632.7	923.55	202.81	402.69	972.07	342.28	404.5	970.47	267.32	524.27	834.51	505.52	505.62	840.4	108.75	508.65	989	465.26	516.98	973.21	130.45	377.31	923.41	299.7	519.95	630.87	502.44	564.93	543.9	472.48	493.82	544.43	489.26	586.03	630.48	482.11	502.28	464.54	477.62	493.26	438.86	335.46	419.99	259.02	475.82	496.01	179.68	469.25	429.69	186	472.39	492.44	249.33	481.17	452.86	90.08	467.97	468.73	97.483	385.24	398.66	72.893	408.47	415.68	41.11	383.04	398.01	42.275	444.81	553.07	41.129	508.29	599.24	35.254	405.41	639.22	63.707	467.37	456.58	625.44	121.53	521.73	536.4	119.81	444.16	536.07	135.59	526.79	630.97	106.08	494.21	460.06	124.38	488.55	444.12	264.34	411.07	290.22	115.39	487.81	208.34	115.1	416.18	216.27	125.49	475.52	283.71	106.72	458.05	100.54	121.19	478.12	92.427	201.68	404.47	65.864	159.7	417.94	39.952	191.73	407.61	38.398	130.89	568.06	36.963	79.46	603.46	46.609	184.72	656.49	64.593	131.01	444.51	1405.2	294.26	383.52	1153.2	302.49
302	1.2542	646.93	1122.2	307.91	520.09	1353.4	444.33	522.82	1347.9	147.84	563.33	1642.4	295.06	613.23	937.86	416.12	632.68	923.56	202.81	402.66	972.07	342.28	404.47	970.47	267.32	524.24	834.51	505.52	505.6	840.4	108.75	508.62	989.01	465.27	516.96	973.21	130.45	377.28	923.39	299.7	519.92	630.88	502.44	564.91	543.9	472.48	493.8	544.43	489.26	586.01	630.48	482.12	502.26	464.54	477.63	493.25	438.86	335.46	419.98	259.01	475.82	496	179.68	469.26	429.69	186	472.39	492.44	249.33	481.17	452.86	90.079	467.97	468.73	97.485	385.24	398.65	72.893	408.47	415.68	41.109	383.04	398.01	42.274	444.81	553.07	41.129	508.29	599.24	35.255	405.41	639.22	63.709	467.37	456.57	625.43	121.53	521.72	536.4	119.81	444.15	536.06	135.6	526.77	630.97	106.08	494.2	460.06	124.38	488.54	444.12	264.34	411.06	290.22	115.39	487.81	208.34	115.1	416.17	216.27	125.49	475.52	283.71	106.72	458.05	100.54	121.19	478.12	92.426	201.68	404.47	65.863	159.7	417.94	39.952	191.73	407.61	38.397	130.89	568.06	36.963	79.46	603.46	46.61	184.72	656.49	64.595	131.01	444.5	1405.2	294.26	383.5	1153.2	302.49
303	1.2583	646.9	1122.2	307.9	520.08	1353.4	444.33	522.79	1347.9	147.84	563.33	1642.4	295.06	613.19	937.87	416.12	632.66	923.56	202.82	402.63	972.07	342.28	404.44	970.47	267.32	524.2	834.51	505.52	505.58	840.4	108.75	508.59	989.01	465.27	516.93	973.21	130.45	377.26	923.38	299.7	519.9	630.88	502.44	564.88	543.9	472.49	493.77	544.43	489.26	585.98	630.48	482.12	502.24	464.54	477.63	493.23	438.86	335.46	419.97	259.01	475.82	496	179.68	469.26	429.68	186	472.4	492.43	249.33	481.17	452.86	90.079	467.97	468.73	97.486	385.24	398.65	72.894	408.47	415.68	41.109	383.04	398.01	42.273	444.81	553.07	41.129	508.29	599.24	35.255	405.41	639.22	63.71	467.37	456.56	625.43	121.54	521.71	536.4	119.81	444.14	536.05	135.6	526.76	630.97	106.09	494.19	460.06	124.39	488.52	444.12	264.34	411.06	290.22	115.39	487.81	208.34	115.1	416.17	216.27	125.49	475.51	283.71	106.72	458.05	100.54	121.19	478.11	92.426	201.67	404.47	65.862	159.7	417.94	39.952	191.73	407.61	38.396	130.89	568.06	36.964	79.46	603.46	46.61	184.72	656.48	64.597	131.01	444.48	1405.2	294.25	383.47	1153.2	302.5
304	1.2625	646.87	1122.2	307.89	520.06	1353.4	444.33	522.76	1347.9	147.83	563.33	1642.4	295.06	613.16	937.87	416.12	632.63	923.57	202.82	402.6	972.07	342.28	404.41	970.47	267.32	524.17	834.51	505.52	505.56	840.4	108.75	508.56	989.02	465.27	516.91	973.2	130.45	377.23	923.37	299.69	519.87	630.88	502.44	564.86	543.91	472.5	493.75	544.43	489.26	585.96	630.49	482.13	502.23	464.54	477.63	493.22	438.86	335.46	419.96	259.01	475.82	496	179.69	469.27	429.68	186	472.4	492.42	249.34	481.17	452.86	90.079	467.97	468.73	97.488	385.24	398.65	72.895	408.47	415.68	41.109	383.04	398.01	42.273	444.81	553.07	41.129	508.29	599.24	35.256	405.41	639.22	63.711	467.37	456.54	625.43	121.54	521.69	536.4	119.82	444.13	536.05	135.61	526.74	630.97	106.09	494.18	460.06	124.39	488.51	444.12	264.34	411.05	290.21	115.39	487.8	208.33	115.1	416.17	216.26	125.49	475.51	283.71	106.72	458.05	100.54	121.18	478.11	92.426	201.67	404.47	65.862	159.7	417.94	39.952	191.73	407.61	38.395	130.89	568.06	36.964	79.461	603.46	46.611	184.72	656.48	64.598	131.01	444.46	1405.2	294.25	383.45	1153.2	302.5
305	1.2667	646.84	1122.2	307.88	520.04	1353.4	444.33	522.73	1347.8	147.82	563.32	1642.4	295.05	613.12	937.88	416.12	632.61	923.58	202.82	402.57	972.06	342.27	404.38	970.47	267.32	524.13	834.52	505.52	505.53	840.4	108.76	508.53	989.02	465.27	516.88	973.2	130.45	377.2	923.36	299.69	519.85	630.88	502.45	564.84	543.91	472.5	493.73	544.43	489.27	585.93	630.49	482.13	502.21	464.54	477.63	493.21	438.86	335.46	419.95	259.01	475.82	496	179.69	469.28	429.67	186	472.4	492.41	249.34	481.17	452.86	90.078	467.97	468.73	97.49	385.24	398.65	72.895	408.46	415.68	41.109	383.04	398.01	42.272	444.81	553.07	41.129	508.29	599.24	35.257	405.41	639.22	63.712	467.37	456.52	625.43	121.54	521.68	536.4	119.82	444.11	536.04	135.61	526.73	630.97	106.09	494.17	460.06	124.39	488.49	444.12	264.34	411.05	290.21	115.39	487.8	208.33	115.11	416.16	216.26	125.49	475.5	283.71	106.72	458.05	100.54	121.18	478.11	92.425	201.67	404.47	65.861	159.7	417.94	39.952	191.73	407.61	38.394	130.89	568.06	36.964	79.461	603.46	46.611	184.72	656.48	64.6	131.01	444.44	1405.2	294.24	383.42	1153.2	302.5
306	1.2708	646.81	1122.2	307.87	520.03	1353.4	444.33	522.69	1347.8	147.81	563.32	1642.4	295.05	613.09	937.88	416.12	632.58	923.58	202.83	402.55	972.06	342.27	404.35	970.46	267.31	524.1	834.52	505.52	505.51	840.4	108.76	508.5	989.03	465.27	516.85	973.2	130.46	377.17	923.35	299.69	519.82	630.89	502.45	564.82	543.91	472.51	493.71	544.43	489.27	585.9	630.49	482.14	502.19	464.55	477.63	493.19	438.86	335.47	419.95	259.01	475.82	495.99	179.7	469.28	429.67	186	472.4	492.4	249.34	481.17	452.86	90.078	467.97	468.72	97.492	385.24	398.65	72.896	408.46	415.68	41.108	383.04	398.01	42.271	444.81	553.07	41.129	508.29	599.24	35.257	405.41	639.22	63.713	467.37	456.51	625.42	121.55	521.67	536.4	119.82	444.1	536.03	135.62	526.71	630.97	106.1	494.16	460.06	124.39	488.47	444.12	264.34	411.04	290.21	115.39	487.8	208.33	115.11	416.16	216.26	125.48	475.49	283.71	106.72	458.05	100.54	121.18	478.11	92.425	201.67	404.47	65.861	159.7	417.94	39.952	191.73	407.61	38.393	130.89	568.06	36.965	79.462	603.46	46.611	184.72	656.48	64.601	131.01	444.42	1405.2	294.24	383.4	1153.2	302.51
307	1.275	646.78	1122.2	307.86	520.01	1353.4	444.32	522.66	1347.8	147.8	563.32	1642.4	295.04	613.06	937.88	416.12	632.55	923.59	202.83	402.52	972.06	342.27	404.32	970.46	267.31	524.07	834.52	505.52	505.49	840.39	108.76	508.47	989.03	465.27	516.82	973.2	130.46	377.14	923.34	299.68	519.79	630.89	502.45	564.8	543.92	472.51	493.68	544.43	489.27	585.88	630.49	482.14	502.17	464.55	477.63	493.18	438.87	335.47	419.94	259	475.83	495.99	179.7	469.29	429.66	186	472.4	492.39	249.34	481.17	452.86	90.078	467.97	468.72	97.494	385.24	398.65	72.897	408.46	415.68	41.108	383.04	398.01	42.271	444.81	553.07	41.129	508.29	599.24	35.258	405.41	639.21	63.713	467.37	456.49	625.42	121.55	521.66	536.4	119.83	444.08	536.03	135.63	526.7	630.97	106.1	494.15	460.06	124.39	488.45	444.12	264.34	411.03	290.21	115.39	487.79	208.33	115.11	416.15	216.26	125.48	475.49	283.71	106.72	458.04	100.54	121.18	478.11	92.424	201.67	404.47	65.861	159.7	417.94	39.951	191.73	407.61	38.392	130.89	568.06	36.965	79.462	603.46	46.611	184.72	656.48	64.603	131.01	444.4	1405.2	294.23	383.37	1153.2	302.51
308	1.2792	646.75	1122.2	307.85	520	1353.4	444.32	522.62	1347.8	147.79	563.31	1642.4	295.04	613.03	937.89	416.12	632.53	923.59	202.83	402.49	972.06	342.26	404.3	970.46	267.31	524.03	834.52	505.52	505.46	840.39	108.76	508.45	989.03	465.27	516.8	973.2	130.46	377.11	923.33	299.68	519.77	630.89	502.45	564.78	543.92	472.51	493.66	544.43	489.27	585.85	630.5	482.14	502.16	464.55	477.63	493.17	438.87	335.47	419.93	259	475.83	495.99	179.71	469.3	429.66	186	472.4	492.39	249.34	481.17	452.86	90.077	467.97	468.72	97.496	385.24	398.65	72.897	408.46	415.68	41.108	383.04	398.01	42.27	444.81	553.07	41.129	508.29	599.24	35.258	405.41	639.21	63.714	467.37	456.47	625.42	121.55	521.64	536.4	119.83	444.07	536.02	135.63	526.68	630.98	106.1	494.14	460.06	124.39	488.43	444.13	264.34	411.03	290.2	115.39	487.79	208.33	115.11	416.15	216.26	125.48	475.48	283.71	106.72	458.04	100.54	121.18	478.11	92.423	201.67	404.47	65.86	159.7	417.94	39.951	191.73	407.61	38.391	130.89	568.06	36.965	79.463	603.46	46.611	184.72	656.48	64.604	131.01	444.38	1405.2	294.23	383.35	1153.2	302.51
309	1.2833	646.72	1122.2	307.84	519.98	1353.4	444.32	522.59	1347.8	147.78	563.31	1642.4	295.03	612.99	937.89	416.12	632.5	923.59	202.83	402.46	972.06	342.26	404.27	970.46	267.31	524	834.52	505.52	505.43	840.39	108.76	508.42	989.04	465.26	516.77	973.2	130.46	377.08	923.33	299.68	519.74	630.89	502.45	564.76	543.92	472.52	493.64	544.43	489.27	585.83	630.5	482.14	502.14	464.55	477.63	493.15	438.87	335.47	419.92	259	475.83	495.99	179.71	469.31	429.65	186	472.4	492.38	249.34	481.17	452.86	90.077	467.97	468.72	97.497	385.24	398.65	72.898	408.46	415.68	41.108	383.04	398.01	42.269	444.81	553.07	41.129	508.29	599.24	35.258	405.41	639.21	63.715	467.37	456.45	625.41	121.56	521.63	536.4	119.83	444.05	536.02	135.64	526.66	630.98	106.11	494.12	460.06	124.39	488.41	444.13	264.34	411.02	290.2	115.39	487.78	208.33	115.11	416.14	216.26	125.48	475.47	283.71	106.72	458.04	100.54	121.18	478.11	92.423	201.67	404.47	65.86	159.7	417.94	39.951	191.73	407.61	38.39	130.89	568.06	36.965	79.463	603.46	46.611	184.72	656.48	64.605	131.01	444.36	1405.2	294.23	383.32	1153.2	302.52
